<?xml version="1.0" encoding="UTF-8"?>
<svg width="500px" height="102px" viewBox="0 0 500 102" version="1.1" xmlns="http://www.w3.org/2000/svg" xmlns:xlink="http://www.w3.org/1999/xlink">
    <title>Slice 1</title>
    <g id="Page-1" stroke="none" stroke-width="1" fill="none" fill-rule="evenodd">
        <g id="welter-und-welter-logo" transform="translate(0.000000, 1.000000)">
            <path d="M107.411273,88.9874739 C111.77453,88.9874739 113.2881,91.4822547 113.2881,94.0814196 C113.2881,97.6722338 111.002088,99.8121086 107.17119,99.8121086 L103.956159,99.8121086 L103.956159,88.9874739 L107.411273,88.9874739 Z M105.448852,98.736952 L107.118998,98.736952 C110.167015,98.736952 111.628392,97.2129436 111.628392,94.0501044 C111.628392,91.6283925 110.281837,90.0835073 107.43215,90.0835073 L105.438413,90.0835073 L105.438413,98.736952 L105.448852,98.736952 Z" id="Shape" fill="#020203" fill-rule="nonzero"></path>
            <polygon id="Path" fill="#020203" fill-rule="nonzero" points="120.887265 99.8121086 120.887265 88.9874739 122.379958 88.9874739 122.379958 99.8121086"></polygon>
            <polygon id="Path" fill="#020203" fill-rule="nonzero" points="135.887265 90.0730689 132.045929 90.0730689 132.045929 93.5699374 135.803758 93.5699374 135.803758 94.6555324 132.045929 94.6555324 132.045929 98.736952 136.544885 98.736952 136.544885 99.822547 130.542797 99.822547 130.542797 88.9979123 135.876827 88.9979123"></polygon>
            <polygon id="Path" fill="#020203" fill-rule="nonzero" points="155.302714 93.8308977 159.989562 88.8413361 161.012526 89.5093946 156.816284 93.9248434 161.565762 99.4154489 160.093946 99.9895616 155.323591 94.2275574 155.292276 94.2275574 155.292276 99.8434238 153.799582 99.8434238 153.799582 89.0083507 155.292276 89.0083507 155.292276 93.8308977"></polygon>
            <path d="M169.885177,88.9874739 L169.885177,95.5427975 C169.885177,97.7870564 170.720251,98.9561587 172.661795,98.9561587 C174.686848,98.9561587 175.365344,97.348643 175.365344,95.7933194 L175.365344,88.9770355 L176.77453,88.9770355 L176.77453,95.8350731 C176.77453,98.2672234 175.281837,99.9895616 172.661795,99.9895616 C169.613779,99.9895616 168.392484,98.3820459 168.392484,95.5949896 L168.392484,88.9770355 L169.885177,88.9770355 L169.885177,88.9874739 Z M172.244259,87.045929 C172.244259,87.4530271 171.91023,87.7974948 171.503132,87.7974948 C171.127349,87.7974948 170.772443,87.4321503 170.772443,87.045929 C170.772443,86.6805846 171.137787,86.3048017 171.503132,86.3048017 C171.91023,86.3048017 172.244259,86.6492693 172.244259,87.045929 Z M175.177453,87.045929 C175.177453,87.4530271 174.843424,87.7974948 174.436326,87.7974948 C174.060543,87.7974948 173.705637,87.4321503 173.705637,87.045929 C173.705637,86.6805846 174.070981,86.3048017 174.436326,86.3048017 C174.843424,86.3048017 175.177453,86.6492693 175.177453,87.045929 Z" id="Shape" fill="#020203" fill-rule="nonzero"></path>
            <path d="M192.954071,90.8246347 C192.442589,90.4070981 191.283925,89.8851775 190.125261,89.8851775 C187.453027,89.8851775 185.866388,91.8058455 185.866388,94.34238 C185.866388,97.0772443 187.755741,98.9248434 190.125261,98.9248434 C191.304802,98.9248434 192.23382,98.559499 192.860125,98.1106472 L193.444676,99.0083507 C192.713987,99.5093946 191.440501,100 190.041754,100 C186.169102,100 184.206681,97.3590814 184.206681,94.3632568 C184.206681,91.6388309 186.336117,88.7995825 190.229645,88.7995825 C191.77453,88.7995825 192.860125,89.34238 193.569937,89.8956159 L192.954071,90.8246347 Z" id="Path" fill="#020203" fill-rule="nonzero"></path>
            <polygon id="Path" fill="#020203" fill-rule="nonzero" points="209.206681 99.8121086 207.713987 99.8121086 207.713987 94.4363257 202.421712 94.4363257 202.421712 99.8121086 200.929019 99.8121086 200.929019 88.9874739 202.421712 88.9874739 202.421712 93.3507307 207.713987 93.3507307 207.713987 88.9874739 209.206681 88.9874739"></polygon>
            <polygon id="Path" fill="#020203" fill-rule="nonzero" points="222.703549 90.0730689 218.862213 90.0730689 218.862213 93.5699374 222.620042 93.5699374 222.620042 94.6555324 218.862213 94.6555324 218.862213 98.736952 223.361169 98.736952 223.361169 99.822547 217.359081 99.822547 217.359081 88.9979123 222.693111 88.9979123"></polygon>
            <path d="M240.083507,99.8121086 L238.903967,99.8121086 C236.555324,96.993737 232.515658,92.1398747 231.858038,91.1899791 L231.826722,91.1899791 L231.826722,99.8121086 L230.584551,99.8121086 L230.584551,88.9874739 L231.691023,88.9874739 C234.070981,91.8058455 238.068894,96.5448852 238.789144,97.6200418 L238.820459,97.6200418 L238.820459,88.9874739 L240.06263,88.9874739 L240.06263,99.8121086 L240.083507,99.8121086 Z" id="Path" fill="#020203" fill-rule="nonzero"></path>
            <path d="M260.010438,99.8121086 L258.517745,99.8121086 L258.517745,90.9916493 L258.48643,90.9916493 C258.058455,92.2546973 255.59499,97.0354906 254.14405,99.8121086 L253.549061,99.8121086 C252.202505,97.0354906 249.958246,92.4112735 249.54071,90.9916493 L249.509395,90.9916493 L249.509395,99.8121086 L248.267223,99.8121086 L248.267223,88.9874739 L249.874739,88.9874739 C251.263048,91.8580376 252.661795,94.7494781 254.029228,97.8079332 C255.563674,94.7599165 257.087683,91.868476 258.611691,88.9874739 L260.020877,88.9874739 L260.010438,99.8121086 L260.010438,99.8121086 Z" id="Path" fill="#020203" fill-rule="nonzero"></path>
            <path d="M272.348643,88.9874739 L276.388309,99.8121086 L274.655532,99.8121086 L273.549061,96.6283925 L269.425887,96.6283925 L268.277662,99.8121086 L266.826722,99.8121086 L271.231733,88.9874739 L272.348643,88.9874739 Z M273.194154,95.5427975 C272.651357,94.0501044 272.129436,92.5365344 271.586639,90.5949896 L271.555324,90.5949896 C271.002088,92.5469729 270.427975,94.039666 269.832985,95.5427975 L273.194154,95.5427975 Z" id="Shape" fill="#020203" fill-rule="nonzero"></path>
            <path d="M292.661795,99.8121086 L291.482255,99.8121086 C289.133612,96.993737 285.093946,92.1398747 284.436326,91.1899791 L284.40501,91.1899791 L284.40501,99.8121086 L283.162839,99.8121086 L283.162839,88.9874739 L284.269311,88.9874739 C286.649269,91.8058455 290.647182,96.5448852 291.367432,97.6200418 L291.398747,97.6200418 L291.398747,88.9874739 L292.651357,88.9874739 L292.651357,99.8121086 L292.661795,99.8121086 Z" id="Path" fill="#020203" fill-rule="nonzero"></path>
            <path d="M302.17119,88.9874739 L302.17119,95.5427975 C302.17119,97.7870564 303.006263,98.9561587 304.947808,98.9561587 C306.97286,98.9561587 307.651357,97.348643 307.651357,95.7933194 L307.651357,88.9770355 L309.060543,88.9770355 L309.060543,95.8350731 C309.060543,98.2672234 307.56785,99.9895616 304.947808,99.9895616 C301.899791,99.9895616 300.678497,98.3820459 300.678497,95.5949896 L300.678497,88.9770355 L302.17119,88.9770355 L302.17119,88.9874739 L302.17119,88.9874739 Z" id="Path" fill="#020203" fill-rule="nonzero"></path>
            <polygon id="Path" fill="#020203" fill-rule="nonzero" points="322.400835 90.0730689 318.559499 90.0730689 318.559499 94.1858038 322.317328 94.1858038 322.317328 95.2713987 318.559499 95.2713987 318.559499 99.822547 317.066806 99.822547 317.066806 88.9979123 322.400835 88.9979123"></polygon>
            <path d="M333.799582,88.9874739 L337.839248,99.8121086 L336.106472,99.8121086 L335,96.6283925 L330.876827,96.6283925 L329.707724,99.8121086 L328.256785,99.8121086 L332.661795,88.9874739 L333.799582,88.9874739 Z M334.634656,95.5427975 C334.091858,94.0501044 333.569937,92.5365344 333.02714,90.5949896 L332.985386,90.5949896 C332.43215,92.5469729 331.858038,94.039666 331.263048,95.5427975 L334.634656,95.5427975 Z" id="Shape" fill="#020203" fill-rule="nonzero"></path>
            <polygon id="Path" fill="#020203" fill-rule="nonzero" points="346.127349 93.8308977 350.814196 88.8413361 351.837161 89.5093946 347.640919 93.9248434 352.390397 99.4154489 350.929019 99.9895616 346.158664 94.2275574 346.127349 94.2275574 346.127349 99.8434238 344.634656 99.8434238 344.634656 89.0083507 346.127349 89.0083507"></polygon>
            <polygon id="Path" fill="#020203" fill-rule="nonzero" points="361.597077 99.8121086 361.597077 90.0626305 358.141962 90.0626305 358.141962 88.9770355 366.597077 88.9770355 366.597077 90.0626305 363.110647 90.0626305 363.110647 99.8121086"></polygon>
            <path d="M374.864301,88.9874739 L374.864301,95.5427975 C374.864301,97.7870564 375.699374,98.9561587 377.640919,98.9561587 C379.665971,98.9561587 380.344468,97.348643 380.344468,95.7933194 L380.344468,88.9770355 L381.753653,88.9770355 L381.753653,95.8350731 C381.753653,98.2672234 380.26096,99.9895616 377.640919,99.9895616 C374.592902,99.9895616 373.371608,98.3820459 373.371608,95.5949896 L373.371608,88.9770355 L374.864301,88.9770355 L374.864301,88.9874739 L374.864301,88.9874739 Z" id="Path" fill="#020203" fill-rule="nonzero"></path>
            <path d="M389.759916,88.9874739 L392.849687,88.9874739 C394.613779,88.9874739 395.991649,89.8956159 395.991649,91.7745303 C395.991649,93.3716075 395.219207,94.2693111 394.185804,94.9269311 L396.878914,99.5407098 L395.354906,100.010438 L392.849687,95.3444676 L391.25261,95.3444676 L391.25261,99.822547 L389.759916,99.822547 L389.759916,88.9874739 L389.759916,88.9874739 Z M391.25261,94.2379958 L392.108559,94.2379958 C394.029228,94.2379958 394.384134,92.8183716 394.384134,91.8997912 C394.384134,90.5741127 393.549061,90.0626305 392.546973,90.0626305 L391.263048,90.0626305 L391.25261,94.2379958 L391.25261,94.2379958 Z" id="Shape" fill="#020203" fill-rule="nonzero"></path>
            <path d="M37.4947808,26.868476 C41.1377871,38.5803758 44.8434238,50.2192067 48.4237996,63.4864301 L48.5490605,63.4864301 C51.6075157,50.0208768 54.7286013,38.1210856 57.8496868,26.2108559 L65.3340292,27.5156576 L52.5156576,72.4008351 L43.1524008,72.4008351 C39.7703549,61.6075157 36.388309,50.7411273 33.0688935,38.3820459 L32.9436326,38.3820459 C29.6868476,50.7411273 26.440501,61.6075157 23.1210856,72.4008351 L13.6847599,72.4008351 L1.00208768,27.5156576 L10.0417537,26.2108559 C13.1002088,38.1106472 16.085595,50.0208768 19.0814196,63.4864301 L19.2066806,63.4864301 C22.7870564,50.2192067 26.4300626,38.5699374 30.0730689,26.868476 C30.0730689,26.868476 37.4947808,26.868476 37.4947808,26.868476 Z" id="Path" fill="#020203" fill-rule="nonzero"></path>
            <path d="M75.2609603,56.9102296 C75.0626305,63.0271399 79.3632568,67.5782881 84.7599165,67.5782881 C87.9436326,67.5782881 91.3256785,66.4718163 93.4759916,64.9791232 L95.9498956,69.5302714 C91.5240084,72.1294363 86.9102296,73.1732777 83.2045929,73.1732777 C73.3820459,73.1732777 66.0334029,66.2108559 66.0334029,55.480167 C66.0334029,45.4697286 73.3194154,39.091858 82.6200418,39.091858 C92.7661795,39.091858 96.993737,47.223382 96.3465553,56.9102296 L75.2609603,56.9102296 Z M88.2045929,52.2338205 C88.5281837,47.2860125 86.7745303,43.9039666 82.4843424,43.9039666 C77.5365344,43.9039666 75.3340292,47.8705637 75.3966597,52.2338205 L88.2045929,52.2338205 L88.2045929,52.2338205 Z" id="Shape" fill="#020203" fill-rule="nonzero"></path>
            <polygon id="Path" fill="#020203" fill-rule="nonzero" points="103.058455 72.3903967 103.058455 24.5824635 111.7119 24.5824635 111.7119 72.3903967"></polygon>
            <path d="M130.083507,39.874739 L138.601253,39.874739 L138.601253,44.3006263 L130.083507,44.3006263 L130.083507,60.302714 C130.083507,65.6367432 131.7119,67.9123173 134.572025,67.9123173 C136.461378,67.9123173 137.56785,67.3903967 138.736952,66.8058455 L140.229645,71.0960334 C137.693111,72.4634656 134.572025,73.1732777 131.7119,73.1732777 C124.561587,73.1732777 121.430063,69.4050104 121.430063,62.7661795 L121.430063,44.2901879 L116.878914,44.2901879 L116.878914,39.8643006 L121.430063,39.8643006 L121.430063,32.0563674 L130.083507,30.1043841 C130.083507,30.1043841 130.083507,39.874739 130.083507,39.874739 Z" id="Path" fill="#020203" fill-rule="nonzero"></path>
            <path d="M150.85595,56.9102296 C150.65762,63.0271399 154.958246,67.5782881 160.354906,67.5782881 C163.538622,67.5782881 166.920668,66.4718163 169.070981,64.9791232 L171.544885,69.5302714 C167.118998,72.1294363 162.505219,73.1732777 158.799582,73.1732777 C148.977035,73.1732777 141.628392,66.2108559 141.628392,55.480167 C141.628392,45.4697286 148.914405,39.091858 158.215031,39.091858 C168.361169,39.091858 172.588727,47.223382 171.941545,56.9102296 L150.85595,56.9102296 Z M163.799582,52.2338205 C164.123173,47.2860125 162.36952,43.9039666 158.079332,43.9039666 C153.131524,43.9039666 150.929019,47.8705637 150.991649,52.2338205 L163.799582,52.2338205 L163.799582,52.2338205 Z" id="Shape" fill="#020203" fill-rule="nonzero"></path>
            <path d="M187.265136,45.5949896 L187.390397,45.5949896 L189.14405,43.0584551 C190.187891,41.691023 192.066806,39.091858 194.73904,39.091858 C196.691023,39.091858 198.768267,40.1356994 200.59499,42.0146138 L197.338205,47.9958246 C195.908142,47.2755741 195,46.8893528 193.235908,46.8893528 C190.240084,46.8893528 187.317328,49.3006263 187.317328,56.3256785 L187.317328,72.3903967 L178.663883,72.3903967 L178.663883,39.874739 L187.254697,39.874739 L187.265136,45.5949896 L187.265136,45.5949896 Z" id="Path" fill="#020203" fill-rule="nonzero"></path>
            <g id="Group" transform="translate(299.582463, 24.008351)" fill="#020203" fill-rule="nonzero">
                <path d="M37.1294363,2.86012526 C40.7724426,14.5720251 44.4780793,26.2108559 48.0584551,39.4780793 L48.1837161,39.4780793 C51.2421712,26.0125261 54.3632568,14.1127349 57.4843424,2.20250522 L64.9686848,3.50730689 L52.1503132,48.3924843 L42.7870564,48.3924843 C39.4050104,37.5991649 36.0229645,26.7327766 32.7035491,14.3736952 L32.5782881,14.3736952 C29.3215031,26.7327766 26.0751566,37.5991649 22.7557411,48.3924843 L13.3194154,48.3924843 L0.636743215,3.50730689 L9.67640919,2.20250522 C12.7348643,14.1022965 15.7202505,26.0125261 18.7160752,39.4780793 L18.8413361,39.4780793 C22.4112735,26.2108559 26.0647182,14.5615866 29.7077244,2.86012526 C29.7077244,2.86012526 37.1294363,2.86012526 37.1294363,2.86012526 Z" id="Path"></path>
                <path d="M74.9060543,32.9018789 C74.7077244,39.0187891 79.0083507,43.5699374 84.4050104,43.5699374 C87.5887265,43.5699374 90.9707724,42.4634656 93.1210856,40.9707724 L95.5949896,45.5219207 C91.1691023,48.1210856 86.5553236,49.1649269 82.8496868,49.1649269 C73.0271399,49.1649269 65.6784969,42.2025052 65.6784969,31.4718163 C65.6784969,21.4613779 72.9645094,15.0835073 82.2651357,15.0835073 C92.4112735,15.0835073 96.6388309,23.2150313 95.9916493,32.9018789 L74.9060543,32.9018789 Z M87.8496868,28.2254697 C88.1732777,23.2776618 86.4196242,19.8956159 82.1294363,19.8956159 C77.1816284,19.8956159 74.9686848,23.8622129 75.0417537,28.2254697 L87.8496868,28.2254697 L87.8496868,28.2254697 Z" id="Shape"></path>
                <polygon id="Path" points="102.703549 48.3820459 102.703549 0.574112735 111.356994 0.574112735 111.356994 48.3820459"></polygon>
                <path d="M129.728601,15.8663883 L138.246347,15.8663883 L138.246347,20.2922756 L129.728601,20.2922756 L129.728601,36.2943633 C129.728601,41.6283925 131.356994,43.9039666 134.217119,43.9039666 C136.106472,43.9039666 137.212944,43.3820459 138.382046,42.7974948 L139.874739,47.0876827 C137.338205,48.4551148 134.217119,49.1649269 131.356994,49.1649269 C124.206681,49.1649269 121.075157,45.3966597 121.075157,38.7578288 L121.075157,20.2818372 L116.524008,20.2818372 L116.524008,15.8559499 L121.075157,15.8559499 L121.075157,8.0480167 L129.728601,6.0960334 L129.728601,15.8663883 L129.728601,15.8663883 Z" id="Path"></path>
                <path d="M150.501044,32.9018789 C150.302714,39.0187891 154.60334,43.5699374 160,43.5699374 C163.194154,43.5699374 166.565762,42.4634656 168.716075,40.9707724 L171.189979,45.5219207 C166.764092,48.1210856 162.150313,49.1649269 158.444676,49.1649269 C148.622129,49.1649269 141.273486,42.2025052 141.273486,31.4718163 C141.273486,21.4613779 148.559499,15.0835073 157.860125,15.0835073 C168.006263,15.0835073 172.23382,23.2150313 171.586639,32.9018789 L150.501044,32.9018789 Z M163.444676,28.2254697 C163.768267,23.2776618 162.014614,19.8956159 157.724426,19.8956159 C152.776618,19.8956159 150.563674,23.8622129 150.636743,28.2254697 L163.444676,28.2254697 L163.444676,28.2254697 Z" id="Shape"></path>
                <path d="M186.91023,21.5866388 L187.045929,21.5866388 L188.799582,19.0501044 C189.843424,17.6826722 191.722338,15.0835073 194.394572,15.0835073 C196.346555,15.0835073 198.4238,16.1273486 200.250522,18.006263 L196.993737,23.9874739 C195.563674,23.2672234 194.655532,22.8810021 192.901879,22.8810021 C189.906054,22.8810021 186.983299,25.2922756 186.983299,32.3173278 L186.983299,48.3820459 L178.329854,48.3820459 L178.329854,15.8663883 L186.91023,15.8663883 L186.91023,21.5866388 L186.91023,21.5866388 Z" id="Path"></path>
            </g>
            <g id="Group" transform="translate(211.899791, 0.000000)">
                <path d="M79.7077244,40 C79.7077244,61.9519833 61.9102296,79.7599165 39.9478079,79.7599165 C17.9958246,79.7599165 0.187891441,61.9519833 0.187891441,40 C0.187891441,18.0480167 17.9853862,0.250521921 39.9478079,0.250521921 C61.9102296,0.250521921 79.7077244,18.0480167 79.7077244,40 Z" id="Path" stroke="#261612" stroke-width="2.2108" fill="#261612"></path>
                <g transform="translate(11.482255, 5.219207)" fill="#CECC03">
                    <path d="M16.4926931,26.7536534 C12.6096033,28.8935282 8.72651357,31.0334029 4.83298539,33.1837161 C4.85386221,33.3402923 4.87473904,33.4864301 4.90605428,33.6325678 C6.64926931,33.9665971 8.39248434,34.3528184 10.1461378,34.6242171 C14.1022965,35.2296451 18.1106472,35.6263048 22.0354906,36.3987474 C26.993737,37.3799582 31.9311065,38.5699374 36.8267223,39.8329854 C38.4237996,40.2400835 39.7599165,40.3862213 41.1064718,39.3006263 C43.3194154,37.5365344 45.5845511,35.8141962 47.8392484,34.1022965 C48.0375783,33.9457203 48.3194154,33.9248434 48.559499,33.8308977 C49.091858,33.6012526 49.6242171,33.3611691 50.1461378,33.131524 C50.1356994,32.9958246 50.1148225,32.8601253 50.1043841,32.7139875 C48.3402923,32.2442589 46.5866388,31.7327766 44.8121086,31.3152401 C40.4488518,30.2922756 36.0960334,29.1858038 31.691023,28.3611691 C27.6617954,27.6096033 23.5803758,27.1816284 19.5302714,26.5762004 C18.9248434,26.4926931 18.3507307,26.2004175 17.7557411,26.0020877 C17.7870564,25.8350731 17.82881,25.6680585 17.8601253,25.5010438 C18.9248434,25.605428 20,25.6680585 21.0542797,25.8350731 C30.8977035,27.3903967 40.7306889,28.9874739 50.5741127,30.5636743 C51.7118998,30.7411273 52.8496868,30.8977035 53.9874739,31.1482255 C54.394572,31.2317328 55.0521921,31.5448852 55.0626305,31.7640919 C55.0626305,32.2651357 54.8643006,33.0793319 54.519833,33.2150313 C53.2881002,33.7265136 53.0793319,34.697286 53.0167015,35.8037578 C52.7557411,39.5720251 52.473904,43.3507307 52.2755741,47.1398747 C52.223382,48.3298539 52.5365344,49.5407098 52.4947808,50.7306889 C52.4634656,51.691023 52.1607516,52.651357 51.9102296,53.5908142 C51.8580376,53.8204593 51.5344468,53.9770355 51.3256785,54.1544885 C51.2212944,53.9457203 51.0334029,53.7473904 51.0020877,53.5281837 C50.9290188,52.82881 50.908142,52.1189979 50.8559499,51.2734864 C50.5845511,51.4300626 50.2922756,51.5135699 50.1148225,51.7014614 C47.5678497,54.5093946 45.0208768,57.3068894 42.5365344,60.177453 C42.1816284,60.5845511 42.1085595,61.3048017 42.0354906,61.8997912 C41.8893528,63.1419624 41.9102296,64.4258873 41.7223382,65.6680585 C41.6492693,66.1169102 41.1586639,66.5135699 40.8663883,66.9311065 C40.7306889,66.8580376 40.5949896,66.7849687 40.4592902,66.7118998 C40.4592902,65.4384134 40.4592902,64.1649269 40.4592902,62.6931106 C38.5803758,63.7265136 38.2985386,61.7327766 37.2338205,61.2108559 C29.9686848,57.5887265 22.5782881,54.3110647 14.6868476,52.2755741 C12.6722338,51.7536534 10.7202505,51.0229645 8.72651357,50.4279749 C8.19415449,50.2713987 7.63048017,50.2400835 6.9519833,50.1356994 C7.12943633,51.3465553 7.2651357,52.348643 7.41127349,53.3507307 C7.22338205,53.3924843 7.03549061,53.434238 6.84759916,53.4864301 C6.57620042,52.9018789 6.33611691,52.3173278 6.05427975,51.743215 C5.60542797,50.8455115 5.13569937,49.9582463 4.66597077,49.0814196 C4.61377871,48.9561587 4.46764092,48.8413361 4.47807933,48.736952 C4.8434238,46.3256785 3.08977035,44.4572025 2.78705637,42.1920668 C2.46346555,39.8643006 1.76409186,37.5782881 1.14822547,35.3131524 C0.824634656,34.1753653 1.21085595,33.559499 2.20250522,33.0793319 C5.92901879,31.2943633 9.65553236,29.4676409 13.3716075,27.6617954 C14.3110647,27.2129436 15.2713987,26.7849687 16.2317328,26.3465553 C16.3256785,26.4613779 16.4091858,26.5970772 16.4926931,26.7536534 Z M3.46555324,35.2922756 C3.8308977,36.868476 4.1440501,38.0584551 4.36325678,39.2797495 C4.49895616,40.0730689 4.91649269,40.3653445 5.66805846,40.5114823 C10.0730689,41.3778706 14.4885177,42.2442589 18.8830898,43.1628392 C25.5114823,44.5615866 31.8789144,46.8267223 38.2045929,49.2275574 C39.697286,49.7912317 40.2296451,50.2818372 40.4592902,51.2004175 C33.6743215,49.7390397 27.526096,46.2004175 20.3862213,44.6659708 C20.7933194,47.4321503 21.1273486,49.8956159 21.5553236,52.3277662 C21.6179541,52.6409186 22.1607516,52.9645094 22.5365344,53.1210856 C28.0897704,55.3966597 33.6638831,57.6304802 39.2066806,59.9164927 C40.0521921,60.2713987 40.3653445,60.0313152 40.4592902,59.217119 C40.6263048,57.8079332 40.960334,56.3987474 40.9501347,54.9895616 C40.9290188,51.3048017 40.7411273,47.6304802 40.6367432,43.9457203 C40.6158664,43.1210856 40.177453,42.7870564 39.4467641,42.5887265 C34.9373695,41.3987474 30.4697286,39.9895616 25.908142,39.0083507 C19.7912317,37.6722338 13.611691,36.6492693 7.45302714,35.5427975 C6.2526096,35.3131524 5,35.3757829 3.46555324,35.2922756 Z M50.8246347,34.9060543 C48.5177453,36.4926931 46.5762004,37.9123173 44.5511482,39.1858038 C43.1210856,40.0939457 42.2129436,40.8872651 42.348643,42.9749478 C42.5782881,46.7640919 42.1816284,50.5845511 42.045929,54.394572 C42.0146138,55.3862213 42.045929,56.3778706 42.045929,57.4634656 C44.8643006,54.8121086 47.5991649,52.2755741 50.2713987,49.6764092 C50.6471816,49.3110647 50.8872651,48.6743215 50.908142,48.1524008 C51.0125261,44.8329854 51.0542797,41.5135699 51.085595,38.1837161 C51.085595,37.2025052 50.9394572,36.2108559 50.8246347,34.9060543 Z M5.25052192,42.1503132 C5.77244259,44.1022965 6.1691023,45.7724426 6.69102296,47.4008351 C6.83716075,47.8601253 7.30688935,48.4029228 7.75574113,48.5490605 C11.1586639,49.6868476 14.6033403,50.7306889 18.0375783,51.7849687 C18.6430063,51.9728601 19.2797495,52.0772443 20.0104384,52.2338205 C19.6033403,50.0208768 19.3006263,48.006263 18.8622129,46.0229645 C18.611691,44.874739 18.1002088,43.9665971 16.6388309,43.7891441 C14.394572,43.5073069 12.2025052,42.9227557 9.96868476,42.5678497 C8.41336117,42.3277662 6.83716075,42.2860125 5.25052192,42.1503132 Z" id="Shape"></path>
                    <path d="M31.6805846,8.60125261 C31.8267223,6.92066806 31.9728601,5.02087683 32.17119,2.71398747 C33.434238,4.80167015 32.9749478,6.92066806 33.6638831,8.82045929 C34.9269311,8.56993737 35.3966597,7.5782881 35.6263048,6.62839248 C36.0125261,5.07306889 36.1691023,3.46555324 36.4196242,1.87891441 C36.4926931,1.4091858 36.565762,0.939457203 36.6492693,0.469728601 C36.7640919,0.469728601 36.8893528,0.480167015 37.0041754,0.490605428 C37.0041754,2.11899791 37.0250522,3.75782881 36.993737,5.39665971 C36.9832985,6.49269311 36.7640919,7.66179541 38.611691,7.58872651 C38.3298539,8.08977035 38.1524008,8.40292276 37.8601253,8.9039666 C40.2818372,10.4488518 42.4321503,12.4321503 45.3862213,13.0584551 C45.6471816,13.1106472 46.0020877,13.6638831 45.9812109,13.9665971 C45.8663883,15.782881 45.6784969,17.5991649 45.4697286,19.4050104 C45.4384134,19.6659708 45.1670146,19.9582463 44.9269311,20.1043841 C43.3298539,21.0542797 41.6597077,21.8997912 40.1043841,22.9018789 C38.8726514,23.6951983 37.7557411,24.6764092 36.3465553,25.7620042 C36.0020877,25.605428 35.3340292,25.1461378 34.6033403,25.0104384 C33.1002088,24.7390397 31.5553236,24.6242171 30.0417537,24.4676409 C24.5929019,23.8830898 19.1440501,23.2881002 13.6951983,22.7348643 C12.7661795,22.6409186 11.7954071,22.5052192 10.908142,22.7035491 C9.59290188,22.9749478 9.18580376,22.1189979 8.9039666,21.2734864 C8.50730689,20.1148225 8.21503132,18.914405 8.11064718,17.7035491 C8.06889353,17.2025052 8.53862213,16.5135699 8.97703549,16.1586639 C11.5553236,14.0292276 14.2066806,12.0041754 16.7954071,9.90605428 C17.5156576,9.32150313 18.2463466,8.6743215 18.7160752,7.90187891 C19.0605428,7.33820459 19.0083507,6.52400835 19.394572,5.74112735 C19.4885177,6.07515658 19.6033403,6.38830898 19.6555324,6.7223382 C19.7807933,7.47390397 19.7807933,8.22546973 20.8977035,8.24634656 C24.394572,8.30897704 27.8914405,8.46555324 31.6805846,8.60125261 Z M9.12317328,17.348643 C9.79123173,20.7098121 10.0730689,21.0542797 12.4530271,21.2943633 C16.691023,21.7327766 20.9394572,22.0981211 25.177453,22.5782881 C28.2254697,22.9227557 31.263048,23.3611691 34.2797495,23.8622129 C35.1878914,24.0187891 35.4279749,23.6221294 35.5114823,22.9331942 C35.6367432,21.7954071 35.6993737,20.6471816 35.7933194,19.4154489 C35.4592902,19.3632568 35.1565762,19.3110647 34.7807933,19.2484342 C34.9164927,19.039666 35.0104384,18.9352818 35.0417537,18.8204593 C35.0730689,18.7160752 35.0521921,18.6012526 35.0521921,18.2881002 C26.4091858,17.9958246 17.8914405,16.0647182 9.12317328,17.348643 Z M13.8204593,15.0626305 C21.0542797,15.8455115 28.0375783,16.5970772 35.1670146,17.3799582 C34.9373695,16.7849687 34.7599165,16.2526096 34.519833,15.7411273 C33.7995825,14.217119 33.1210856,12.6826722 32.3068894,11.2212944 C32.0668058,10.7933194 31.4613779,10.3862213 30.960334,10.302714 C27.5887265,9.69728601 24.1962422,9.1440501 20.8037578,8.68475992 C20.2609603,8.61169102 19.5407098,8.99791232 19.0814196,9.38413361 C18.3194154,10.0313152 17.7139875,10.8663883 17.0354906,11.6075157 C16.0020877,12.7244259 14.9582463,13.8413361 13.8204593,15.0626305 Z M43.9457203,14.3319415 C41.4196242,12.6617954 39.1544885,11.1377871 36.8475992,9.66597077 C36.5448852,9.46764092 35.9916493,9.54070981 35.605428,9.65553236 C35.0313152,9.85386221 34.4989562,10.2192067 33.9352818,10.480167 C33.1837161,10.8350731 33.1419624,11.3674322 33.4968685,12.0146138 C34.2693111,13.4133612 35.0104384,14.8329854 35.8559499,16.1899791 C36.0542797,16.5135699 36.6805846,16.868476 36.9728601,16.7745303 C39.2693111,16.0334029 41.5344468,15.177453 43.9457203,14.3319415 Z M36.9415449,23.308977 C39.4572025,21.8893528 41.743215,20.605428 44.0083507,19.3110647 C44.1544885,19.2275574 44.3110647,19.0501044 44.3215031,18.9039666 C44.5093946,17.5782881 44.6555324,16.2526096 44.8329854,14.8121086 C43.6325678,15.3757829 42.7139875,15.782881 41.8162839,16.2317328 C40.4592902,16.8997912 39.1022965,17.5678497 37.776618,18.2985386 C37.4321503,18.4864301 36.993737,18.8935282 36.9728601,19.2379958 C36.8893528,20.5427975 36.9415449,21.868476 36.9415449,23.308977 Z" id="Shape"></path>
                    <path d="M27.17119,35.7411273 C25.2505219,35.4592902 22.4008351,35.0835073 19.5615866,34.6033403 C18.4133612,34.4154489 17.7139875,33.4551148 17.8079332,32.4217119 C17.8810021,31.6283925 18.4551148,30.5532359 19.1231733,30.2087683 C22.1398747,28.6743215 25.4279749,28.3194154 28.7265136,28.9874739 C30.3966597,29.3110647 32.0146138,29.9791232 33.5803758,30.6784969 C34.9164927,31.263048 35.0313152,32.4425887 33.9665971,33.434238 C32.1085595,35.1356994 30.7098121,35.7933194 27.17119,35.7411273 Z M33.1210856,32.5052192 C29.1022965,29.2797495 24.9373695,30.0521921 20.6784969,31.5448852 C21.085595,32.9018789 21.9728601,33.4551148 24.8121086,33.914405 C27.7139875,34.3841336 30.7098121,35.2296451 33.1210856,32.5052192 Z" id="Shape"></path>
                    <path d="M46.8997912,33.8830898 C45.782881,34.4467641 45.0208768,34.8434238 44.2484342,35.2400835 C44.217119,35.1670146 44.1858038,35.1043841 44.1544885,35.0313152 C44.4885177,34.7286013 44.8121086,34.4154489 45.1461378,34.1022965 C44.6242171,33.8413361 44.1231733,33.434238 43.5699374,33.3507307 C42.7348643,33.2254697 41.868476,33.3194154 41.0125261,33.3194154 C40.9812109,33.4968685 40.9394572,33.6743215 40.908142,33.8517745 C41.7118998,34.2066806 42.5156576,34.5720251 43.2985386,34.9164927 C42.8705637,35.4697286 41.0751566,35.6784969 40.0835073,35.0626305 C39.4676409,34.6764092 39.0292276,33.9874739 38.5073069,33.4446764 C39.1649269,32.9749478 39.7912317,32.1607516 40.4697286,32.1085595 C41.993737,32.0041754 43.5699374,32.17119 45.0835073,32.4530271 C45.6784969,32.5574113 46.1691023,33.2776618 46.8997912,33.8830898 Z" id="Path"></path>
                    <path d="M15.1148225,32.5365344 C13.0688935,31.0751566 11.9311065,31.0542797 10.6889353,32.5156576 C11.3152401,32.6409186 11.8580376,32.7557411 12.4008351,32.8601253 C11.4822547,33.3402923 10.5010438,33.4133612 9.97912317,32.5887265 C9.47807933,31.7849687 10.1356994,31.0960334 10.9185804,30.8768267 C11.8789144,30.6158664 12.9018789,30.3235908 13.8726514,30.4279749 C14.8851775,30.5219207 15.7515658,31.1273486 15.1148225,32.5365344 Z" id="Path"></path>
                    <path d="M33.5490605,44.8643006 C32.1398747,44.3006263 31.0229645,43.8517745 29.9060543,43.4029228 C29.9478079,43.1732777 29.9791232,42.9331942 30.0104384,42.6931106 C30.9290188,42.6304802 31.8475992,42.4530271 32.7453027,42.5469729 C33.2463466,42.5887265 33.9248434,42.9645094 34.1022965,43.3716075 C34.2588727,43.7160752 33.7787056,44.3215031 33.5490605,44.8643006 Z" id="Path"></path>
                    <path d="M20.6471816,40.9498956 C19.5824635,40.9498956 18.8830898,40.8455115 18.2254697,40.9812109 C17.2755741,41.1586639 17.2338205,40.3862213 17.2338205,39.9373695 C17.2338205,39.6555324 17.8601253,39.1336117 18.2045929,39.1336117 C18.9874739,39.1231733 19.8016701,39.2901879 20.5323591,39.5720251 C20.8141962,39.6764092 20.9707724,40.2713987 21.0751566,40.6680585 C21.0960334,40.7515658 20.6263048,40.960334 20.6471816,40.9498956 Z" id="Path"></path>
                    <path d="M10.2192067,37.9645094 C9.85386221,38.1106472 9.58246347,38.1524008 9.41544885,38.308977 C9.13361169,38.5699374 8.84133612,39.1858038 8.68475992,39.1440501 C7.87056367,38.9248434 7.09812109,38.559499 6.31524008,38.2359081 C6.50313152,37.8914405 6.61795407,37.3068894 6.88935282,37.2338205 C8.05845511,36.8580376 9.22755741,36.7954071 10.2192067,37.9645094 Z" id="Path"></path>
                </g>
            </g>
        </g>
    </g>
</svg>